<?xml version="1.0" standalone="no"?>
<!DOCTYPE svg PUBLIC "-//W3C//DTD SVG 20010904//EN"
 "http://www.w3.org/TR/2001/REC-SVG-20010904/DTD/svg10.dtd">
<svg version="1.0" xmlns="http://www.w3.org/2000/svg"
 width="261.000000pt" height="261.000000pt" viewBox="0 0 261.000000 261.000000"
 preserveAspectRatio="xMidYMid meet">
<metadata>
Created by potrace 1.14, written by Peter Selinger 2001-2017
</metadata>
<g transform="translate(0.000000,261.000000) scale(0.100000,-0.100000)"
fill="#000000" stroke="none">
<path d="M889 2228 c-242 -32 -432 -125 -576 -282 -108 -118 -164 -257 -164
-406 0 -99 14 -155 63 -258 31 -67 56 -100 121 -165 45 -46 94 -91 109 -102
l26 -20 -43 -130 c-24 -71 -43 -131 -42 -132 2 -1 67 36 145 83 l143 85 47
-15 c94 -30 282 -54 282 -37 0 4 -7 30 -16 57 -23 74 -27 225 -8 304 52 208
181 361 396 469 107 53 217 81 348 88 58 3 106 7 108 8 7 6 -39 84 -78 134
-158 200 -415 318 -709 325 -53 1 -121 -1 -152 -6z m-153 -305 c25 -16 49 -66
46 -97 -7 -99 -121 -145 -190 -76 -49 49 -50 111 -1 160 42 41 94 46 145 13z
m580 0 c46 -29 60 -96 33 -148 -38 -74 -159 -75 -197 -2 -26 49 -19 99 18 136
42 41 97 46 146 14z"/>
<path d="M1643 1644 c-164 -27 -297 -92 -403 -196 -181 -177 -214 -444 -81
-644 51 -76 64 -90 134 -147 166 -135 411 -191 642 -146 l60 12 65 -40 c36
-21 91 -54 122 -71 l57 -33 -35 98 c-18 54 -34 104 -34 111 0 7 13 20 29 30
101 61 203 187 243 299 26 74 31 202 11 280 -46 180 -214 347 -413 413 -36 12
-74 24 -85 26 -109 21 -218 24 -312 8z m-24 -315 c49 -48 48 -110 -1 -159 -72
-72 -191 -21 -190 81 2 100 121 149 191 78z m473 -10 c21 -25 26 -40 24 -75
-6 -100 -123 -145 -193 -72 -38 40 -40 113 -4 152 50 53 126 51 173 -5z"/>
</g>
</svg>
