<?xml version="1.0" encoding="UTF-8" standalone="no"?>
<!DOCTYPE svg PUBLIC "-//W3C//DTD SVG 1.1//EN" "http://www.w3.org/Graphics/SVG/1.1/DTD/svg11.dtd">
<svg width="100%" height="100%" viewBox="0 0 363 364" version="1.1" xmlns="http://www.w3.org/2000/svg" xmlns:xlink="http://www.w3.org/1999/xlink" xml:space="preserve" xmlns:serif="http://www.serif.com/" style="fill-rule:evenodd;clip-rule:evenodd;stroke-linejoin:round;stroke-miterlimit:2;">
    <g transform="matrix(1,0,0,1,0,-724)">
        <g id="panels-home" transform="matrix(1,0,0,1,0,724.9)">
            <rect x="0" y="0" width="362.45" height="362.45" style="fill:rgb(255,166,71);"/>
            <g transform="matrix(8.80083,0,0,8.80083,75.615,80.0154)">
                <path d="M12,5.69L17,10.19L17,18L15,18L15,12L9,12L9,18L7,18L7,10.19L12,5.69M12,3L2,12L5,12L5,20L11,20L11,14L13,14L13,20L19,20L19,12L22,12L12,3Z" style="fill:white;fill-rule:nonzero;"/>
            </g>
        </g>
    </g>
</svg>
